<svg width="615" height="160" viewBox="0 0 615 160" fill="none" xmlns="http://www.w3.org/2000/svg">
<path d="M55.1766 153C-20.4234 132.2 37.6766 42.3333 76.1766 0C31.6767 21.5 -13.3235 108 3.67646 141C17.2765 167.4 43.6765 160 55.1766 153Z" fill="#E88032"/>
<path d="M43.8121 74L45.3121 65C16.9121 109 40.4788 134 55.8121 141C79.4121 155.4 138.312 111 164.812 87C48.8121 161.4 35.8121 109.333 43.8121 74Z" fill="#00B564"/>
<path d="M60.0546 51.0107L55.0725 42.4304C53.8525 40.3293 50.8839 40.1548 49.4262 42.0984C48.5701 43.2399 48.5199 44.7952 49.3008 45.9894L55.0723 54.8165C55.8753 56.0445 55.5867 57.685 54.4129 58.5653C53.3128 59.3904 52.9804 60.8953 53.6306 62.107L83.3769 117.543C84.5846 119.794 87.2943 120.773 89.6613 119.813L98.7046 116.147C101.508 115.01 102.668 111.664 101.169 109.036L70.9388 56.0232C70.0492 54.4631 68.3913 53.5 66.5954 53.5H64.3785C62.5966 53.5 60.9494 52.5517 60.0546 51.0107Z" fill="#00B564"/>
<path d="M91 58H87V75.5L91 82V58Z" fill="#00B564"/>
<path d="M81.5 58H77V62L81.5 67V58Z" fill="#00B564"/>
<path d="M97 91V58H100.5V96L97 91Z" fill="#00B564"/>
<circle cx="112" cy="90" r="7.5" fill="white" stroke="#15406B"/>
<path d="M201.9 132.4L197 120.8C196.6 120.867 196.2 120.9 195.8 120.9C195.4 120.9 194.967 120.9 194.5 120.9C191.233 120.9 188.4 120.533 186 119.8C183.667 119 181.967 117.4 180.9 115C179.833 112.533 179.633 108.9 180.3 104.1L184.6 73.4C185.133 69.8667 186.233 67.1333 187.9 65.2C189.633 63.2667 191.833 61.9333 194.5 61.2C197.233 60.4 200.267 60 203.6 60C207 60 209.867 60.4 212.2 61.2C214.533 62 216.233 63.3667 217.3 65.3C218.433 67.2333 218.767 69.9333 218.3 73.4L214 104C213.467 108.067 212.533 111.233 211.2 113.5C209.867 115.7 208.2 117.367 206.2 118.5L210.3 127.8L201.9 132.4ZM196 114.1C197 114.1 197.867 113.967 198.6 113.7C199.4 113.433 200.067 112.867 200.6 112C201.2 111.133 201.6 109.933 201.8 108.4L206.7 72.9C206.967 71.3 206.933 70.1 206.6 69.3C206.267 68.4333 205.733 67.8667 205 67.6C204.333 67.3333 203.533 67.2 202.6 67.2C201.6 67.2 200.7 67.3333 199.9 67.6C199.1 67.8667 198.433 68.4333 197.9 69.3C197.367 70.1 196.967 71.3 196.7 72.9L191.8 108.4C191.6 109.933 191.633 111.133 191.9 112C192.233 112.867 192.733 113.433 193.4 113.7C194.133 113.967 195 114.1 196 114.1ZM229.423 120L237.823 60.9H259.423C263.356 60.9 266.189 61.8 267.923 63.6C269.723 65.3333 270.356 67.7667 269.823 70.9L268.623 80.1C268.156 83.2333 266.923 85.8667 264.923 88C262.989 90.1333 260.256 91.3667 256.723 91.7C258.923 92.0333 260.423 92.8 261.223 94C262.023 95.1333 262.589 97 262.923 99.6L265.623 120H252.723L251.323 100.4C251.256 99.3333 251.123 98.3667 250.923 97.5C250.723 96.6333 250.423 95.9667 250.023 95.5C249.689 94.9667 249.189 94.7 248.523 94.7H245.123L241.523 120H229.423ZM246.223 86.7H251.023C252.756 86.7 254.123 86.2 255.123 85.2C256.123 84.2 256.789 82.5 257.123 80.1L258.123 73C258.456 70.8667 258.289 69.3667 257.623 68.5C256.956 67.6333 255.989 67.2 254.723 67.2H248.923L246.223 86.7ZM297.315 121.2C293.982 121.2 291.115 120.8 288.715 120C286.315 119.267 284.582 117.7 283.515 115.3C282.448 112.833 282.248 109.2 282.915 104.4L287.315 73.4C287.848 69.8667 288.948 67.1333 290.615 65.2C292.282 63.2667 294.448 61.9333 297.115 61.2C299.782 60.4 302.748 60 306.015 60C309.348 60 312.215 60.4 314.615 61.2C317.082 62 318.882 63.3667 320.015 65.3C321.215 67.2333 321.582 69.9333 321.115 73.4L316.715 104.3C316.048 109.167 314.815 112.833 313.015 115.3C311.215 117.7 308.982 119.267 306.315 120C303.715 120.8 300.715 121.2 297.315 121.2ZM298.315 114.4C299.248 114.4 300.148 114.267 301.015 114C301.882 113.667 302.615 113.1 303.215 112.3C303.882 111.433 304.315 110.233 304.515 108.7L309.515 72.9C309.782 71.3 309.682 70.1 309.215 69.3C308.815 68.4333 308.215 67.8667 307.415 67.6C306.682 67.3333 305.848 67.2 304.915 67.2C303.982 67.2 303.082 67.3333 302.215 67.6C301.348 67.8667 300.615 68.4333 300.015 69.3C299.415 70.1 298.982 71.3 298.715 72.9L293.715 108.7C293.515 110.233 293.615 111.433 294.015 112.3C294.415 113.1 294.982 113.667 295.715 114C296.515 114.267 297.382 114.4 298.315 114.4ZM348.335 120.7C344.335 120.7 341.068 120.2 338.535 119.2C336.002 118.2 334.268 116.433 333.335 113.9C332.402 111.367 332.235 107.8 332.835 103.2L333.335 99.7H345.435L344.835 104.2C344.502 106.667 344.435 108.567 344.635 109.9C344.835 111.167 345.268 112.067 345.935 112.6C346.668 113.067 347.535 113.3 348.535 113.3C350.002 113.3 351.235 112.767 352.235 111.7C353.302 110.567 354.068 108.4 354.535 105.2C354.935 102.733 354.802 100.9 354.135 99.7C353.535 98.4333 352.468 97.4333 350.935 96.7C349.402 95.9 347.368 94.9333 344.835 93.8C342.635 92.8 340.868 91.6 339.535 90.2C338.268 88.8 337.402 87.0333 336.935 84.9C336.535 82.7667 336.535 80.1667 336.935 77.1C337.468 73.2333 338.435 70.1 339.835 67.7C341.235 65.3 343.202 63.5667 345.735 62.5C348.335 61.3667 351.702 60.8 355.835 60.8C361.235 60.8 365.168 61.9667 367.635 64.3C370.168 66.5667 371.102 70 370.435 74.6L369.435 81.7C367.502 81.7 365.568 81.7 363.635 81.7C361.702 81.7 359.768 81.7 357.835 81.7L358.435 78.1C358.835 75.1 358.768 73 358.235 71.8C357.702 70.6 356.535 70 354.735 70C352.935 70 351.602 70.5333 350.735 71.6C349.935 72.6667 349.335 74.4 348.935 76.8C348.668 78.8 348.835 80.4 349.435 81.6C350.035 82.8 350.935 83.7667 352.135 84.5C353.402 85.1667 354.968 85.8667 356.835 86.6C359.635 87.7333 361.868 88.9 363.535 90.1C365.268 91.2333 366.402 92.8333 366.935 94.9C367.535 96.9 367.568 99.8 367.035 103.6C366.435 107.867 365.235 111.267 363.435 113.8C361.635 116.267 359.435 118.033 356.835 119.1C354.235 120.167 351.402 120.7 348.335 120.7ZM381.298 120L389.698 60.9H410.698C414.631 60.9 417.464 61.8 419.198 63.6C420.998 65.3333 421.664 67.7667 421.198 70.9L419.798 81.1C419.464 83.7667 418.764 86.2667 417.698 88.6C416.698 90.8667 415.231 92.7 413.298 94.1C411.364 95.5 408.798 96.2 405.598 96.2H396.798L393.398 120H381.298ZM397.698 89.8H402.198C403.798 89.8 405.098 89.0333 406.098 87.5C407.164 85.9667 407.931 83.4333 408.398 79.9L408.898 75.9C409.364 72.7667 409.364 70.5333 408.898 69.2C408.431 67.8667 407.564 67.2 406.298 67.2H400.898L397.698 89.8ZM446.455 121.2C443.122 121.2 440.255 120.8 437.855 120C435.455 119.267 433.722 117.7 432.655 115.3C431.589 112.833 431.389 109.2 432.055 104.4L436.455 73.4C436.989 69.8667 438.089 67.1333 439.755 65.2C441.422 63.2667 443.589 61.9333 446.255 61.2C448.922 60.4 451.889 60 455.155 60C458.489 60 461.355 60.4 463.755 61.2C466.222 62 468.022 63.3667 469.155 65.3C470.355 67.2333 470.722 69.9333 470.255 73.4L465.855 104.3C465.189 109.167 463.955 112.833 462.155 115.3C460.355 117.7 458.122 119.267 455.455 120C452.855 120.8 449.855 121.2 446.455 121.2ZM447.455 114.4C448.389 114.4 449.289 114.267 450.155 114C451.022 113.667 451.755 113.1 452.355 112.3C453.022 111.433 453.455 110.233 453.655 108.7L458.655 72.9C458.922 71.3 458.822 70.1 458.355 69.3C457.955 68.4333 457.355 67.8667 456.555 67.6C455.822 67.3333 454.989 67.2 454.055 67.2C453.122 67.2 452.222 67.3333 451.355 67.6C450.489 67.8667 449.755 68.4333 449.155 69.3C448.555 70.1 448.122 71.3 447.855 72.9L442.855 108.7C442.655 110.233 442.755 111.433 443.155 112.3C443.555 113.1 444.122 113.667 444.855 114C445.655 114.267 446.522 114.4 447.455 114.4ZM481.376 120L489.776 60.9H511.376C515.309 60.9 518.142 61.8 519.876 63.6C521.676 65.3333 522.309 67.7667 521.776 70.9L520.576 80.1C520.109 83.2333 518.876 85.8667 516.876 88C514.942 90.1333 512.209 91.3667 508.676 91.7C510.876 92.0333 512.376 92.8 513.176 94C513.976 95.1333 514.542 97 514.876 99.6L517.576 120H504.676L503.276 100.4C503.209 99.3333 503.076 98.3667 502.876 97.5C502.676 96.6333 502.376 95.9667 501.976 95.5C501.642 94.9667 501.142 94.7 500.476 94.7H497.076L493.476 120H481.376ZM498.176 86.7H502.976C504.709 86.7 506.076 86.2 507.076 85.2C508.076 84.2 508.742 82.5 509.076 80.1L510.076 73C510.409 70.8667 510.242 69.3667 509.576 68.5C508.909 67.6333 507.942 67.2 506.676 67.2H500.876L498.176 86.7ZM539.268 120L546.468 69.1H537.268L538.468 60.9H568.468L567.268 69.1H558.068L550.868 120H539.268ZM591.402 120.7C587.402 120.7 584.135 120.2 581.602 119.2C579.068 118.2 577.335 116.433 576.402 113.9C575.468 111.367 575.302 107.8 575.902 103.2L576.402 99.7H588.502L587.902 104.2C587.568 106.667 587.502 108.567 587.702 109.9C587.902 111.167 588.335 112.067 589.002 112.6C589.735 113.067 590.602 113.3 591.602 113.3C593.068 113.3 594.302 112.767 595.302 111.7C596.368 110.567 597.135 108.4 597.602 105.2C598.002 102.733 597.868 100.9 597.202 99.7C596.602 98.4333 595.535 97.4333 594.002 96.7C592.468 95.9 590.435 94.9333 587.902 93.8C585.702 92.8 583.935 91.6 582.602 90.2C581.335 88.8 580.468 87.0333 580.002 84.9C579.602 82.7667 579.602 80.1667 580.002 77.1C580.535 73.2333 581.502 70.1 582.902 67.7C584.302 65.3 586.268 63.5667 588.802 62.5C591.402 61.3667 594.768 60.8 598.902 60.8C604.302 60.8 608.235 61.9667 610.702 64.3C613.235 66.5667 614.168 70 613.502 74.6L612.502 81.7C610.568 81.7 608.635 81.7 606.702 81.7C604.768 81.7 602.835 81.7 600.902 81.7L601.502 78.1C601.902 75.1 601.835 73 601.302 71.8C600.768 70.6 599.602 70 597.802 70C596.002 70 594.668 70.5333 593.802 71.6C593.002 72.6667 592.402 74.4 592.002 76.8C591.735 78.8 591.902 80.4 592.502 81.6C593.102 82.8 594.002 83.7667 595.202 84.5C596.468 85.1667 598.035 85.8667 599.902 86.6C602.702 87.7333 604.935 88.9 606.602 90.1C608.335 91.2333 609.468 92.8333 610.002 94.9C610.602 96.9 610.635 99.8 610.102 103.6C609.502 107.867 608.302 111.267 606.502 113.8C604.702 116.267 602.502 118.033 599.902 119.1C597.302 120.167 594.468 120.7 591.402 120.7Z" fill="url(#paint0_linear_80_9)"/>
<path d="M116 84L106 94" stroke="#15406B"/>
<path d="M117 85L107 95" stroke="#15406B"/>
<defs>
<linearGradient id="paint0_linear_80_9" x1="178" y1="90" x2="614" y2="90" gradientUnits="userSpaceOnUse">
<stop stop-color="#E88032"/>
<stop offset="1" stop-color="#00B564"/>
</linearGradient>
</defs>
</svg>
